<svg xmlns="http://www.w3.org/2000/svg" width="400" height="600" viewBox="0 0 400 600" role="img" aria-label="Sherlock Holmes">
  <rect width="400" height="600" fill="#F6EEE9"/>
  <rect x="32" y="34" width="336" height="532" rx="24" fill="#FFFDFB" stroke="#E7D2D7" stroke-width="2"/>
  <path d="M32 122 C105 177 171 83 368 84 L368 34 L32 34 Z" fill="#9F4E5E" opacity="0.18"/>
  <rect x="54" y="58" width="292" height="68" rx="14" fill="#9F4E5E" opacity="0.10"/>
  <text x="64" y="86" font-family="Inter, Arial, sans-serif" font-size="12" font-weight="700" fill="#9F4E5E">PAPER HAVEN</text>
  <text x="64" y="108" font-family="Inter, Arial, sans-serif" font-size="11" font-weight="600" fill="#775C63">BOOKSTORE EDITION</text>
  <circle cx="306" cy="91" r="25" fill="#9F4E5E"/>
  <text x="306" y="101" text-anchor="middle" font-family="Inter, Arial, sans-serif" font-size="28" font-weight="800" fill="#FFFDFB">S</text>
  <line x1="64" y1="164" x2="336" y2="164" stroke="#E7D2D7" stroke-width="2"/>
  <g font-family="Inter, Arial, sans-serif"><text x="64" y="210" font-size="31" font-weight="700" fill="#2A2024">SHERLOCK</text><text x="64" y="248" font-size="31" font-weight="700" fill="#2A2024">HOLMES</text></g>
  <text x="64" y="498" font-family="Inter, Arial, sans-serif" font-size="18" font-weight="600" fill="#775C63">Paper Haven</text>
  <rect x="64" y="522" width="118" height="6" rx="3" fill="#9F4E5E"/>
  <rect x="64" y="538" width="178" height="6" rx="3" fill="#E7D2D7" opacity="0.55"/>
  <path d="M314 548 L346 548 L346 516" fill="none" stroke="#9F4E5E" stroke-width="7" stroke-linecap="round"/>
</svg>
